<?xml version="1.0" standalone="no"?><!DOCTYPE svg PUBLIC "-//W3C//DTD SVG 1.1//EN" "http://www.w3.org/Graphics/SVG/1.1/DTD/svg11.dtd"><svg t="1638082320214" class="icon" viewBox="0 0 1024 1024" version="1.1" xmlns="http://www.w3.org/2000/svg" p-id="3046" xmlns:xlink="http://www.w3.org/1999/xlink" width="30" height="30"><defs><style type="text/css"></style></defs><path d="M878.7 628.9c-11 0-20 9-20 20l0.5 210.4c0 11-9 20-20 20l-652-0.3c-11 0-20-9-20-20l0.5-209.1c0-11-9-20-20-20h-13.4c-11 0-20 9-20 20V908c0 11 2.3 20 5.1 20s14.1 0.1 25.1 0.1h3c11 0.1 29 0.1 40 0.1l651.2-0.6h59.6c6.3 0 11.3-9 11.3-20V648.9c0-11-9-20-20-20h-10.9z" fill="#2680F0" p-id="3047"></path><path d="M753.9 416.9c7.8 7.8 20.5 7.8 28.3 0l10.7-10.7c7.8-7.8 7.8-20.5 0-28.3L527.2 112.4c-7.8-7.8-20.5-7.8-28.3 0L233.2 377.8c-7.8 7.8-7.8 20.5 0 28.3l10.7 10.7c7.8 7.8 20.5 7.8 28.3 0l199.5-199.5c7.8-7.8 14.1-5.1 14.1 5.9v477.7c0 11 9 20 20 20h15.1c11 0 20-9 20-20v-477c0-11 6.4-13.6 14.1-5.9l198.9 198.9z" fill="#2680F0" p-id="3048"></path></svg>